<svg width="60" height="60" viewBox="0 0 60 60" fill="none" xmlns="http://www.w3.org/2000/svg">
<g id="customer-service-svgrepo-com 1">
<g id="Group">
<g id="Group_2">
<path id="Vector" d="M49.8412 15.2629C47.5109 6.4868 39.4992 0 30 0C20.5008 0 12.489 6.4868 10.1587 15.2629C7.93228 15.9766 6.31567 18.0659 6.31567 20.5263C6.31567 23.5736 8.79478 26.0527 11.842 26.0527H14.2105V20.5263C14.2105 11.82 21.2936 4.73684 30 4.73684C38.7063 4.73684 45.7895 11.82 45.7895 20.5263V26.0527H48.1579C51.2052 26.0527 53.6843 23.5736 53.6843 20.5263C53.6841 18.0659 52.0677 15.9768 49.8412 15.2629Z" fill="#838383"/>
</g>
</g>
<g id="Group_3">
<g id="Group_4">
<path id="Vector_2" d="M32.1725 26.7613C30.9375 27.9348 28.979 27.9185 27.767 26.7064C26.5357 25.4752 26.5357 23.4718 27.767 22.2404C28.9221 21.0853 30.7577 21.0142 31.997 22.0273C36.4798 21.6855 40.3081 20.3019 41.0134 19.6298C40.5566 13.9454 35.8021 9.47379 29.9999 9.47379C23.8957 9.47379 18.9473 14.4223 18.9473 20.5264C18.9473 26.6306 23.8957 31.5791 29.9999 31.5791C34.4027 31.5791 38.2032 29.0045 39.9803 25.2791C39.835 25.3263 39.6876 25.3732 39.5363 25.4195C37.255 26.1172 34.6641 26.5841 32.1725 26.7613Z" fill="#838383"/>
</g>
</g>
<g id="Group_5">
<g id="Group_6">
<path id="Vector_3" d="M37.3672 34.4746C35.1313 35.6585 32.6085 36.3158 30 36.3158C27.3349 36.3158 24.8223 35.6511 22.618 34.4801C14.5544 37.4773 8.80896 45.2419 8.80896 54.349C8.80896 57.4699 11.339 60 14.4599 60H45.5402C48.6611 60 51.1911 57.4699 51.1911 54.349C51.191 45.2364 45.4386 37.4678 37.3672 34.4746Z" fill="#838383"/>
</g>
</g>
</g>
</svg>
