<svg width="60" height="60" viewBox="0 0 60 60" fill="none" xmlns="http://www.w3.org/2000/svg">
<g id="module-management-svgrepo-com 1">
<path id="Vector" d="M52.5001 1.875H37.5001C36.0082 1.875 34.5775 2.46763 33.5226 3.52252C32.4677 4.57742 31.8751 6.00816 31.8751 7.5V22.5C31.8751 23.9918 32.4677 25.4226 33.5226 26.4775C34.5775 27.5324 36.0082 28.125 37.5001 28.125H52.5001C53.9919 28.125 55.4226 27.5324 56.4775 26.4775C57.5324 25.4226 58.1251 23.9918 58.1251 22.5V7.5C58.1251 6.00816 57.5324 4.57742 56.4775 3.52252C55.4226 2.46763 53.9919 1.875 52.5001 1.875ZM54.3751 22.5C54.3751 22.9973 54.1775 23.4742 53.8259 23.8258C53.4743 24.1775 52.9973 24.375 52.5001 24.375H37.5001C37.0028 24.375 36.5259 24.1775 36.1742 23.8258C35.8226 23.4742 35.6251 22.9973 35.6251 22.5V7.5C35.6251 7.00272 35.8226 6.52581 36.1742 6.17417C36.5259 5.82254 37.0028 5.625 37.5001 5.625H52.5001C52.9973 5.625 53.4743 5.82254 53.8259 6.17417C54.1775 6.52581 54.3751 7.00272 54.3751 7.5V22.5ZM3.75006 13.125C3.99508 13.122 4.23714 13.0711 4.46256 12.975C4.68961 12.8797 4.89884 12.7466 5.08131 12.5813C5.34148 12.3176 5.51772 11.9828 5.5878 11.619C5.65788 11.2553 5.61865 10.879 5.47506 10.5375C5.38582 10.3073 5.25201 10.0971 5.08131 9.91875C4.86483 9.69299 4.59531 9.52498 4.2973 9.43001C3.99928 9.33504 3.68225 9.31613 3.37506 9.375C3.25766 9.39579 3.14395 9.43369 3.03756 9.4875C2.9179 9.52812 2.80435 9.58489 2.70006 9.65625L2.41881 9.88125C2.24811 10.0596 2.1143 10.2698 2.02506 10.5C1.92406 10.737 1.873 10.9923 1.87506 11.25C1.87506 11.7473 2.0726 12.2242 2.42423 12.5758C2.77587 12.9275 3.25278 13.125 3.75006 13.125ZM8.77506 7.5C9.14262 7.49713 9.50124 7.38629 9.80631 7.18125C11.7934 5.86557 14.207 5.35604 16.5563 5.75625C17.0536 5.8383 17.5631 5.71945 17.9727 5.42584C18.3824 5.13223 18.6586 4.68791 18.7407 4.19062C18.8227 3.69334 18.7039 3.18384 18.4103 2.77419C18.1167 2.36454 17.6723 2.0883 17.1751 2.00625C13.9092 1.48012 10.5646 2.19585 7.80006 4.0125C7.44536 4.22292 7.16993 4.54443 7.01642 4.92722C6.86292 5.31001 6.83991 5.73273 6.95095 6.12993C7.06199 6.52712 7.3009 6.87662 7.63066 7.1243C7.96043 7.37199 8.36266 7.50404 8.77506 7.5ZM22.1438 6.09375C21.7739 6.42481 21.5505 6.88903 21.5223 7.38462C21.4942 7.88021 21.6638 8.36673 21.9938 8.7375C23.5319 10.4604 24.3798 12.6904 24.3751 15V22.5C24.3751 22.9973 24.1775 23.4742 23.8259 23.8258C23.4743 24.1775 22.9973 24.375 22.5001 24.375H15.0001C13.0634 24.3739 11.1746 23.773 9.59329 22.655C8.01194 21.537 6.81565 19.9567 6.16881 18.1312C5.98026 17.6939 5.6323 17.3446 5.19561 17.1544C4.75891 16.9643 4.26621 16.9474 3.81754 17.1073C3.36887 17.2672 2.99788 17.5919 2.77988 18.0154C2.56189 18.4389 2.51324 18.9294 2.64381 19.3875C3.54958 21.9412 5.22352 24.152 7.43585 25.7164C9.64819 27.2808 12.2905 28.1222 15.0001 28.125H22.5001C23.9919 28.125 25.4226 27.5324 26.4775 26.4775C27.5324 25.4226 28.1251 23.9918 28.1251 22.5V15C28.1279 11.77 26.9396 8.6524 24.7876 6.24375C24.4565 5.87389 23.9923 5.65039 23.4967 5.62228C23.0011 5.59416 22.5146 5.76371 22.1438 6.09375ZM52.5001 31.875H37.5001C36.0082 31.875 34.5775 32.4676 33.5226 33.5225C32.4677 34.5774 31.8751 36.0082 31.8751 37.5V52.5C31.8751 53.9918 32.4677 55.4226 33.5226 56.4775C34.5775 57.5324 36.0082 58.125 37.5001 58.125H52.5001C53.9919 58.125 55.4226 57.5324 56.4775 56.4775C57.5324 55.4226 58.1251 53.9918 58.1251 52.5V37.5C58.1251 36.0082 57.5324 34.5774 56.4775 33.5225C55.4226 32.4676 53.9919 31.875 52.5001 31.875ZM54.3751 52.5C54.3751 52.9973 54.1775 53.4742 53.8259 53.8258C53.4743 54.1775 52.9973 54.375 52.5001 54.375H37.5001C37.0028 54.375 36.5259 54.1775 36.1742 53.8258C35.8226 53.4742 35.6251 52.9973 35.6251 52.5V37.5C35.6251 37.0027 35.8226 36.5258 36.1742 36.1742C36.5259 35.8225 37.0028 35.625 37.5001 35.625H52.5001C52.9973 35.625 53.4743 35.8225 53.8259 36.1742C54.1775 36.5258 54.3751 37.0027 54.3751 37.5V52.5ZM22.5001 31.875H7.50006C6.00822 31.875 4.57748 32.4676 3.52258 33.5225C2.46769 34.5774 1.87506 36.0082 1.87506 37.5V52.5C1.87506 53.9918 2.46769 55.4226 3.52258 56.4775C4.57748 57.5324 6.00822 58.125 7.50006 58.125H22.5001C23.9919 58.125 25.4226 57.5324 26.4775 56.4775C27.5324 55.4226 28.1251 53.9918 28.1251 52.5V37.5C28.1251 36.0082 27.5324 34.5774 26.4775 33.5225C25.4226 32.4676 23.9919 31.875 22.5001 31.875ZM24.3751 52.5C24.3751 52.9973 24.1775 53.4742 23.8259 53.8258C23.4743 54.1775 22.9973 54.375 22.5001 54.375H7.50006C7.00278 54.375 6.52587 54.1775 6.17423 53.8258C5.8226 53.4742 5.62506 52.9973 5.62506 52.5V37.5C5.62506 37.0027 5.8226 36.5258 6.17423 36.1742C6.52587 35.8225 7.00278 35.625 7.50006 35.625H22.5001C22.9973 35.625 23.4743 35.8225 23.8259 36.1742C24.1775 36.5258 24.3751 37.0027 24.3751 37.5V52.5Z" fill="#838383"/>
</g>
</svg>
