<svg width="60" height="60" viewBox="0 0 60 60" fill="none" xmlns="http://www.w3.org/2000/svg">
<g id="rocket-svgrepo-com 1" clip-path="url(#clip0_40_15)">
<path id="Vector" d="M59.077 2.63051C58.8686 1.78553 58.2086 1.12579 57.3636 0.917122C57.213 0.87995 53.6151 0.00592041 48.8154 0.00592041C43.3529 0.00592041 35.6803 1.16734 30.1472 6.70015C28.0971 8.75027 26.1044 11.169 24.2398 13.7008C21.49 14.0341 18.5443 14.8582 15.4474 16.1633C4.96466 20.5809 0.399591 30.3995 0.210291 30.8153C-0.0836554 31.4613 -0.0689737 32.2057 0.250275 32.8395C0.569524 33.4733 1.15898 33.9284 1.85308 34.0765L13.262 36.5143L23.4795 46.7318L25.9173 58.1407C26.0657 58.8348 26.5205 59.424 27.1543 59.7435C27.4854 59.9103 27.8465 59.9941 28.2083 59.9941C28.5391 59.9941 28.8699 59.9241 29.1785 59.7838C29.5943 59.5945 39.4129 55.0298 43.8305 44.5467C45.2909 41.0812 46.0031 38.1471 46.2971 35.7511C48.8273 33.8875 51.2445 31.8961 53.2933 29.8472C63.205 19.9358 59.25 3.33242 59.077 2.63051ZM13.3073 31.7327L5.97801 30.1668C7.85164 27.342 11.5246 22.9012 17.267 20.4813C18.38 20.0124 19.4174 19.6388 20.3823 19.3386C17.1186 24.4388 14.5724 29.2434 13.3073 31.7327ZM39.5132 42.7268C37.1085 48.433 32.6571 52.1197 29.8254 54.0058L28.2614 46.6868C30.7513 45.4214 35.5585 42.8736 40.6608 39.6084C40.3578 40.5764 39.9821 41.6141 39.5132 42.7268ZM47.0583 25.5258C45.3768 27.2073 43.1411 28.1332 40.7633 28.1332C38.3852 28.1332 36.1495 27.2073 34.4683 25.5258C30.9972 22.0547 30.9972 16.4066 34.4683 12.9355C36.1498 11.254 38.3855 10.3278 40.7633 10.3278C43.1411 10.3278 45.3771 11.2537 47.0583 12.9355C50.5297 16.4069 50.5297 22.0547 47.0583 25.5258ZM43.7452 16.2489C45.3896 17.8932 45.3896 20.5687 43.7452 22.2128C42.9487 23.009 41.8897 23.4479 40.7633 23.4479C39.6369 23.4479 38.5779 23.0093 37.7814 22.2128C36.137 20.5684 36.137 17.8929 37.7814 16.2489C38.5779 15.4523 39.6369 15.0137 40.7633 15.0137C41.8897 15.0137 42.9487 15.4523 43.7452 16.2489Z" fill="#838383"/>
</g>
<defs>
<clipPath id="clip0_40_15">
<rect width="60" height="60" fill="white"/>
</clipPath>
</defs>
</svg>
