<svg width="60" height="60" viewBox="0 0 60 60" fill="none" xmlns="http://www.w3.org/2000/svg">
<g id="strategy-svgrepo-com 1" clip-path="url(#clip0_40_19)">
<g id="People">
<g id="Icon-36">
<path id="strategy" fill-rule="evenodd" clip-rule="evenodd" d="M31.293 42.707C31.488 42.902 31.744 43 32 43C32.256 43 32.512 42.902 32.707 42.707L35 40.414L37.293 42.707C37.488 42.902 37.744 43 38 43C38.256 43 38.512 42.902 38.707 42.707C39.098 42.316 39.098 41.684 38.707 41.293L36.414 39L38.707 36.707C39.098 36.316 39.098 35.684 38.707 35.293C38.316 34.902 37.684 34.902 37.293 35.293L35 37.586L32.707 35.293C32.316 34.902 31.684 34.902 31.293 35.293C30.902 35.684 30.902 36.316 31.293 36.707L33.586 39L31.293 41.293C30.902 41.684 30.902 42.316 31.293 42.707ZM53.707 42.293C53.316 41.902 52.684 41.902 52.293 42.293L50 44.586L47.707 42.293C47.316 41.902 46.684 41.902 46.293 42.293C45.902 42.684 45.902 43.316 46.293 43.707L48.586 46L46.293 48.293C45.902 48.684 45.902 49.316 46.293 49.707C46.488 49.902 46.744 50 47 50C47.256 50 47.512 49.902 47.707 49.707L50 47.414L52.293 49.707C52.488 49.902 52.744 50 53 50C53.256 50 53.512 49.902 53.707 49.707C54.098 49.316 54.098 48.684 53.707 48.293L51.414 46L53.707 43.707C54.098 43.316 54.098 42.684 53.707 42.293ZM10.293 21.707C10.488 21.902 10.744 22 11 22C11.256 22 11.512 21.902 11.707 21.707L14 19.414L16.293 21.707C16.488 21.902 16.744 22 17 22C17.256 22 17.512 21.902 17.707 21.707C18.098 21.316 18.098 20.684 17.707 20.293L15.414 18L17.707 15.707C18.098 15.316 18.098 14.684 17.707 14.293C17.316 13.902 16.684 13.902 16.293 14.293L14 16.586L11.707 14.293C11.316 13.902 10.684 13.902 10.293 14.293C9.902 14.684 9.902 15.316 10.293 15.707L12.586 18L10.293 20.293C9.902 20.684 9.902 21.316 10.293 21.707ZM23.707 46.293C23.316 45.902 22.684 45.902 22.293 46.293L20 48.586L17.707 46.293C17.316 45.902 16.684 45.902 16.293 46.293C15.902 46.684 15.902 47.316 16.293 47.707L18.586 50L16.293 52.293C15.902 52.684 15.902 53.316 16.293 53.707C16.488 53.902 16.744 54 17 54C17.256 54 17.512 53.902 17.707 53.707L20 51.414L22.293 53.707C22.488 53.902 22.744 54 23 54C23.256 54 23.512 53.902 23.707 53.707C24.098 53.316 24.098 52.684 23.707 52.293L21.414 50L23.707 47.707C24.098 47.316 24.098 46.684 23.707 46.293ZM43 14C44.654 14 46 12.654 46 11C46 9.346 44.654 8 43 8C41.346 8 40 9.346 40 11C40 12.654 41.346 14 43 14ZM43 16C40.243 16 38 13.757 38 11C38 8.243 40.243 6 43 6C45.757 6 48 8.243 48 11C48 13.757 45.757 16 43 16ZM60 4V56C60 58.206 58.206 60 56 60H11C10.448 60 10 59.553 10 59V35C10 30.037 14.038 26 19 26C23.962 26 28 30.037 28 35V41C28 44.859 31.14 48 35 48C38.86 48 42 44.859 42 41V21.414L37.707 25.707C37.316 26.098 36.684 26.098 36.293 25.707C35.902 25.316 35.902 24.684 36.293 24.293L42.293 18.294C42.385 18.201 42.495 18.128 42.618 18.077C42.862 17.976 43.138 17.976 43.382 18.077C43.505 18.128 43.615 18.201 43.708 18.294L49.707 24.293C50.098 24.684 50.098 25.316 49.707 25.707C49.512 25.902 49.256 26 49 26C48.744 26 48.488 25.902 48.293 25.707L44 21.414V41C44 45.963 39.962 50 35 50C30.038 50 26 45.963 26 41V35C26 31.141 22.86 28 19 28C15.14 28 12 31.141 12 35V58H56C57.103 58 58 57.103 58 56V4C58 2.897 57.103 2 56 2H4C2.897 2 2 2.897 2 4V56C2 57.103 2.897 58 4 58H7C7.552 58 8 58.447 8 59C8 59.553 7.552 60 7 60H4C1.794 60 0 58.206 0 56V4C0 1.794 1.794 0 4 0H56C58.206 0 60 1.794 60 4Z" fill="#5E5B5B"/>
</g>
</g>
</g>
<defs>
<clipPath id="clip0_40_19">
<rect width="60" height="60" fill="white"/>
</clipPath>
</defs>
</svg>
